<mxfile host="app.diagrams.net" agent="Mozilla/5.0 (Windows NT 10.0; Win64; x64) AppleWebKit/537.36 (KHTML, like Gecko) Chrome/131.0.0.0 Safari/537.36" version="25.0.3">
  <diagram id="C5RBs43oDa-KdzZeNtuy" name="Page-1">
    <mxGraphModel grid="1" page="1" gridSize="10" guides="1" tooltips="1" connect="1" arrows="1" fold="1" pageScale="1" pageWidth="827" pageHeight="1169" math="0" shadow="0">
      <root>
        <mxCell id="WIyWlLk6GJQsqaUBKTNV-0" />
        <mxCell id="WIyWlLk6GJQsqaUBKTNV-1" parent="WIyWlLk6GJQsqaUBKTNV-0" />
        <mxCell id="ME1PsBKnuaRqL1L0iH7A-11" style="edgeStyle=orthogonalEdgeStyle;rounded=0;orthogonalLoop=1;jettySize=auto;html=1;entryX=0.5;entryY=0;entryDx=0;entryDy=0;" edge="1" parent="WIyWlLk6GJQsqaUBKTNV-1" source="uDWQaJNLLOIVVBPx0Mzs-1" target="ME1PsBKnuaRqL1L0iH7A-0">
          <mxGeometry relative="1" as="geometry" />
        </mxCell>
        <mxCell id="uDWQaJNLLOIVVBPx0Mzs-1" value="stat" style="strokeWidth=2;html=1;shape=mxgraph.flowchart.start_1;whiteSpace=wrap;" vertex="1" parent="WIyWlLk6GJQsqaUBKTNV-1">
          <mxGeometry x="414" y="60" width="100" height="50" as="geometry" />
        </mxCell>
        <mxCell id="ME1PsBKnuaRqL1L0iH7A-12" style="edgeStyle=orthogonalEdgeStyle;rounded=0;orthogonalLoop=1;jettySize=auto;html=1;entryX=0.5;entryY=0;entryDx=0;entryDy=0;" edge="1" parent="WIyWlLk6GJQsqaUBKTNV-1" source="ME1PsBKnuaRqL1L0iH7A-0" target="ME1PsBKnuaRqL1L0iH7A-1">
          <mxGeometry relative="1" as="geometry" />
        </mxCell>
        <mxCell id="ME1PsBKnuaRqL1L0iH7A-0" value="รับค่าเป้าหมายเงินออม&amp;nbsp;goal" style="shape=parallelogram;perimeter=parallelogramPerimeter;whiteSpace=wrap;html=1;fixedSize=1;" vertex="1" parent="WIyWlLk6GJQsqaUBKTNV-1">
          <mxGeometry x="381" y="140" width="166" height="60" as="geometry" />
        </mxCell>
        <mxCell id="ME1PsBKnuaRqL1L0iH7A-14" style="edgeStyle=orthogonalEdgeStyle;rounded=0;orthogonalLoop=1;jettySize=auto;html=1;entryX=0.5;entryY=0;entryDx=0;entryDy=0;" edge="1" parent="WIyWlLk6GJQsqaUBKTNV-1" source="ME1PsBKnuaRqL1L0iH7A-1" target="ME1PsBKnuaRqL1L0iH7A-2">
          <mxGeometry relative="1" as="geometry" />
        </mxCell>
        <mxCell id="ME1PsBKnuaRqL1L0iH7A-1" value="รับค่า&lt;font style=&quot;font-size: 12px;&quot;&gt;&lt;span style=&quot;line-height: 107%; font-family: &amp;quot;TH SarabunPSK&amp;quot;, sans-serif;&quot; lang=&quot;TH&quot;&gt;&lt;font style=&quot;&quot;&gt;ระยะเวลาที่อยากเก็บเงิน (กี่ปี)&amp;nbsp;years &amp;nbsp;&amp;nbsp;&lt;/font&gt;&lt;/span&gt;&lt;span style=&quot;font-family: &amp;quot;TH SarabunPSK&amp;quot;, sans-serif;&quot; lang=&quot;TH&quot;&gt;&amp;nbsp;&lt;/span&gt;&lt;/font&gt;" style="shape=parallelogram;perimeter=parallelogramPerimeter;whiteSpace=wrap;html=1;fixedSize=1;" vertex="1" parent="WIyWlLk6GJQsqaUBKTNV-1">
          <mxGeometry x="336" y="240" width="256" height="60" as="geometry" />
        </mxCell>
        <mxCell id="ME1PsBKnuaRqL1L0iH7A-15" style="edgeStyle=orthogonalEdgeStyle;rounded=0;orthogonalLoop=1;jettySize=auto;html=1;entryX=0.5;entryY=0;entryDx=0;entryDy=0;" edge="1" parent="WIyWlLk6GJQsqaUBKTNV-1" source="ME1PsBKnuaRqL1L0iH7A-2" target="ME1PsBKnuaRqL1L0iH7A-3">
          <mxGeometry relative="1" as="geometry" />
        </mxCell>
        <mxCell id="ME1PsBKnuaRqL1L0iH7A-2" value="รับค่าจะออมรายวันหรือรายเดือน&amp;nbsp;frequency" style="shape=parallelogram;perimeter=parallelogramPerimeter;whiteSpace=wrap;html=1;fixedSize=1;" vertex="1" parent="WIyWlLk6GJQsqaUBKTNV-1">
          <mxGeometry x="359" y="340" width="210" height="60" as="geometry" />
        </mxCell>
        <mxCell id="ME1PsBKnuaRqL1L0iH7A-16" style="edgeStyle=orthogonalEdgeStyle;rounded=0;orthogonalLoop=1;jettySize=auto;html=1;entryX=0;entryY=0.5;entryDx=0;entryDy=0;" edge="1" parent="WIyWlLk6GJQsqaUBKTNV-1" source="ME1PsBKnuaRqL1L0iH7A-3" target="ME1PsBKnuaRqL1L0iH7A-4">
          <mxGeometry relative="1" as="geometry" />
        </mxCell>
        <mxCell id="ME1PsBKnuaRqL1L0iH7A-19" style="edgeStyle=orthogonalEdgeStyle;rounded=0;orthogonalLoop=1;jettySize=auto;html=1;entryX=0.5;entryY=0;entryDx=0;entryDy=0;" edge="1" parent="WIyWlLk6GJQsqaUBKTNV-1" source="ME1PsBKnuaRqL1L0iH7A-3" target="ME1PsBKnuaRqL1L0iH7A-6">
          <mxGeometry relative="1" as="geometry">
            <Array as="points">
              <mxPoint x="341" y="490" />
            </Array>
          </mxGeometry>
        </mxCell>
        <mxCell id="ME1PsBKnuaRqL1L0iH7A-3" value="frequency == &lt;span class=&quot;hljs-string&quot;&gt;&quot;วัน&quot;&lt;/span&gt;" style="rhombus;whiteSpace=wrap;html=1;" vertex="1" parent="WIyWlLk6GJQsqaUBKTNV-1">
          <mxGeometry x="401" y="440" width="126" height="100" as="geometry" />
        </mxCell>
        <mxCell id="ME1PsBKnuaRqL1L0iH7A-18" style="edgeStyle=orthogonalEdgeStyle;rounded=0;orthogonalLoop=1;jettySize=auto;html=1;entryX=0.5;entryY=0;entryDx=0;entryDy=0;" edge="1" parent="WIyWlLk6GJQsqaUBKTNV-1" source="ME1PsBKnuaRqL1L0iH7A-4" target="ME1PsBKnuaRqL1L0iH7A-5">
          <mxGeometry relative="1" as="geometry" />
        </mxCell>
        <mxCell id="ME1PsBKnuaRqL1L0iH7A-4" value="savings = goal / (years * &lt;span class=&quot;hljs-number&quot;&gt;365&lt;/span&gt;)" style="rounded=0;whiteSpace=wrap;html=1;" vertex="1" parent="WIyWlLk6GJQsqaUBKTNV-1">
          <mxGeometry x="610" y="460" width="170" height="60" as="geometry" />
        </mxCell>
        <mxCell id="ME1PsBKnuaRqL1L0iH7A-30" style="edgeStyle=orthogonalEdgeStyle;rounded=0;orthogonalLoop=1;jettySize=auto;html=1;entryX=1;entryY=0.5;entryDx=0;entryDy=0;" edge="1" parent="WIyWlLk6GJQsqaUBKTNV-1" source="ME1PsBKnuaRqL1L0iH7A-5" target="ME1PsBKnuaRqL1L0iH7A-28">
          <mxGeometry relative="1" as="geometry">
            <Array as="points">
              <mxPoint x="700" y="990" />
            </Array>
          </mxGeometry>
        </mxCell>
        <mxCell id="ME1PsBKnuaRqL1L0iH7A-5" value="ผลลัพธ์ที่ต้องออมเงินต่อวัน" style="shape=parallelogram;perimeter=parallelogramPerimeter;whiteSpace=wrap;html=1;fixedSize=1;" vertex="1" parent="WIyWlLk6GJQsqaUBKTNV-1">
          <mxGeometry x="612.5" y="580" width="165" height="60" as="geometry" />
        </mxCell>
        <mxCell id="ME1PsBKnuaRqL1L0iH7A-21" style="edgeStyle=orthogonalEdgeStyle;rounded=0;orthogonalLoop=1;jettySize=auto;html=1;entryX=0;entryY=0.5;entryDx=0;entryDy=0;" edge="1" parent="WIyWlLk6GJQsqaUBKTNV-1" source="ME1PsBKnuaRqL1L0iH7A-6" target="ME1PsBKnuaRqL1L0iH7A-7">
          <mxGeometry relative="1" as="geometry" />
        </mxCell>
        <mxCell id="ME1PsBKnuaRqL1L0iH7A-23" style="edgeStyle=orthogonalEdgeStyle;rounded=0;orthogonalLoop=1;jettySize=auto;html=1;" edge="1" parent="WIyWlLk6GJQsqaUBKTNV-1" source="ME1PsBKnuaRqL1L0iH7A-6" target="ME1PsBKnuaRqL1L0iH7A-9">
          <mxGeometry relative="1" as="geometry" />
        </mxCell>
        <mxCell id="ME1PsBKnuaRqL1L0iH7A-6" value="frequency == &lt;span class=&quot;hljs-string&quot;&gt;&quot;เดือน&quot;&lt;/span&gt;" style="rhombus;whiteSpace=wrap;html=1;" vertex="1" parent="WIyWlLk6GJQsqaUBKTNV-1">
          <mxGeometry x="281" y="620" width="120" height="90" as="geometry" />
        </mxCell>
        <mxCell id="ME1PsBKnuaRqL1L0iH7A-22" style="edgeStyle=orthogonalEdgeStyle;rounded=0;orthogonalLoop=1;jettySize=auto;html=1;entryX=0.5;entryY=0;entryDx=0;entryDy=0;" edge="1" parent="WIyWlLk6GJQsqaUBKTNV-1" source="ME1PsBKnuaRqL1L0iH7A-7" target="ME1PsBKnuaRqL1L0iH7A-8">
          <mxGeometry relative="1" as="geometry" />
        </mxCell>
        <mxCell id="ME1PsBKnuaRqL1L0iH7A-7" value="savings = goal / (years * &lt;span class=&quot;hljs-number&quot;&gt;12&lt;/span&gt;)" style="rounded=0;whiteSpace=wrap;html=1;" vertex="1" parent="WIyWlLk6GJQsqaUBKTNV-1">
          <mxGeometry x="470.5" y="635" width="119" height="60" as="geometry" />
        </mxCell>
        <mxCell id="ME1PsBKnuaRqL1L0iH7A-31" style="edgeStyle=orthogonalEdgeStyle;rounded=0;orthogonalLoop=1;jettySize=auto;html=1;entryX=0.5;entryY=0;entryDx=0;entryDy=0;" edge="1" parent="WIyWlLk6GJQsqaUBKTNV-1" source="ME1PsBKnuaRqL1L0iH7A-8" target="ME1PsBKnuaRqL1L0iH7A-28">
          <mxGeometry relative="1" as="geometry" />
        </mxCell>
        <mxCell id="ME1PsBKnuaRqL1L0iH7A-8" value="ผลลัพธ์ที่ต้องออมเงินต่อเดือน" style="shape=parallelogram;perimeter=parallelogramPerimeter;whiteSpace=wrap;html=1;fixedSize=1;" vertex="1" parent="WIyWlLk6GJQsqaUBKTNV-1">
          <mxGeometry x="447.5" y="740" width="165" height="60" as="geometry" />
        </mxCell>
        <mxCell id="ME1PsBKnuaRqL1L0iH7A-33" style="edgeStyle=orthogonalEdgeStyle;rounded=0;orthogonalLoop=1;jettySize=auto;html=1;entryX=0;entryY=0.5;entryDx=0;entryDy=0;" edge="1" parent="WIyWlLk6GJQsqaUBKTNV-1" source="ME1PsBKnuaRqL1L0iH7A-9" target="ME1PsBKnuaRqL1L0iH7A-28">
          <mxGeometry relative="1" as="geometry">
            <Array as="points">
              <mxPoint x="340" y="990" />
            </Array>
          </mxGeometry>
        </mxCell>
        <mxCell id="ME1PsBKnuaRqL1L0iH7A-9" value="ความถี่ที่กรอกไม่ถูกต้อง กรุณาเลือก วัน หรือ เดือน&quot;" style="shape=parallelogram;perimeter=parallelogramPerimeter;whiteSpace=wrap;html=1;fixedSize=1;" vertex="1" parent="WIyWlLk6GJQsqaUBKTNV-1">
          <mxGeometry x="261" y="850" width="160" height="60" as="geometry" />
        </mxCell>
        <mxCell id="ME1PsBKnuaRqL1L0iH7A-10" value="end" style="strokeWidth=2;html=1;shape=mxgraph.flowchart.start_1;whiteSpace=wrap;" vertex="1" parent="WIyWlLk6GJQsqaUBKTNV-1">
          <mxGeometry x="480" y="1030" width="100" height="50" as="geometry" />
        </mxCell>
        <mxCell id="ME1PsBKnuaRqL1L0iH7A-17" value="True" style="text;html=1;align=center;verticalAlign=middle;whiteSpace=wrap;rounded=0;" vertex="1" parent="WIyWlLk6GJQsqaUBKTNV-1">
          <mxGeometry x="514" y="460" width="60" height="30" as="geometry" />
        </mxCell>
        <mxCell id="ME1PsBKnuaRqL1L0iH7A-20" value="False" style="text;html=1;align=center;verticalAlign=middle;whiteSpace=wrap;rounded=0;" vertex="1" parent="WIyWlLk6GJQsqaUBKTNV-1">
          <mxGeometry x="341" y="460" width="60" height="30" as="geometry" />
        </mxCell>
        <mxCell id="ME1PsBKnuaRqL1L0iH7A-24" value="True" style="text;html=1;align=center;verticalAlign=middle;whiteSpace=wrap;rounded=0;" vertex="1" parent="WIyWlLk6GJQsqaUBKTNV-1">
          <mxGeometry x="384" y="635" width="60" height="30" as="geometry" />
        </mxCell>
        <mxCell id="ME1PsBKnuaRqL1L0iH7A-26" value="False" style="text;html=1;align=center;verticalAlign=middle;whiteSpace=wrap;rounded=0;" vertex="1" parent="WIyWlLk6GJQsqaUBKTNV-1">
          <mxGeometry x="290" y="710" width="60" height="30" as="geometry" />
        </mxCell>
        <mxCell id="ME1PsBKnuaRqL1L0iH7A-28" value="" style="ellipse;whiteSpace=wrap;html=1;aspect=fixed;" vertex="1" parent="WIyWlLk6GJQsqaUBKTNV-1">
          <mxGeometry x="520" y="980" width="20" height="20" as="geometry" />
        </mxCell>
        <mxCell id="ME1PsBKnuaRqL1L0iH7A-34" style="edgeStyle=orthogonalEdgeStyle;rounded=0;orthogonalLoop=1;jettySize=auto;html=1;entryX=0.5;entryY=0;entryDx=0;entryDy=0;entryPerimeter=0;" edge="1" parent="WIyWlLk6GJQsqaUBKTNV-1" source="ME1PsBKnuaRqL1L0iH7A-28" target="ME1PsBKnuaRqL1L0iH7A-10">
          <mxGeometry relative="1" as="geometry" />
        </mxCell>
        <mxCell id="ME1PsBKnuaRqL1L0iH7A-35" value="&lt;font style=&quot;font-size: 36px;&quot;&gt;Flowchart&lt;/font&gt;" style="text;html=1;align=center;verticalAlign=middle;whiteSpace=wrap;rounded=0;" vertex="1" parent="WIyWlLk6GJQsqaUBKTNV-1">
          <mxGeometry x="434" y="10" width="60" height="30" as="geometry" />
        </mxCell>
        <mxCell id="ME1PsBKnuaRqL1L0iH7A-38" value="&lt;font style=&quot;font-size: 24px;&quot;&gt;เป้าหมาย: 120,000 บาท&lt;/font&gt;" style="text;html=1;align=center;verticalAlign=middle;whiteSpace=wrap;rounded=0;" vertex="1" parent="WIyWlLk6GJQsqaUBKTNV-1">
          <mxGeometry x="21" y="100" width="260" height="30" as="geometry" />
        </mxCell>
        <mxCell id="ME1PsBKnuaRqL1L0iH7A-39" value="&lt;font style=&quot;font-size: 24px;&quot;&gt;ระยะเวลา: 1 ปี&lt;/font&gt;" style="text;html=1;align=center;verticalAlign=middle;whiteSpace=wrap;rounded=0;" vertex="1" parent="WIyWlLk6GJQsqaUBKTNV-1">
          <mxGeometry x="10" y="155" width="190" height="30" as="geometry" />
        </mxCell>
        <mxCell id="ME1PsBKnuaRqL1L0iH7A-41" value="&lt;font style=&quot;font-size: 24px;&quot;&gt;ความถี่: รายเดือน&lt;/font&gt;" style="text;html=1;align=center;verticalAlign=middle;whiteSpace=wrap;rounded=0;" vertex="1" parent="WIyWlLk6GJQsqaUBKTNV-1">
          <mxGeometry x="30" y="210" width="170" height="30" as="geometry" />
        </mxCell>
        <mxCell id="ME1PsBKnuaRqL1L0iH7A-42" value="&lt;font style=&quot;font-size: 24px;&quot;&gt;ต้องออม 10,000 บาทต่อเดือน&lt;/font&gt;" style="text;html=1;align=center;verticalAlign=middle;whiteSpace=wrap;rounded=0;" vertex="1" parent="WIyWlLk6GJQsqaUBKTNV-1">
          <mxGeometry x="30" y="270" width="300" height="30" as="geometry" />
        </mxCell>
        <mxCell id="ME1PsBKnuaRqL1L0iH7A-43" value="&lt;font style=&quot;font-size: 36px;&quot;&gt;Test Case&lt;/font&gt;" style="text;html=1;align=center;verticalAlign=middle;whiteSpace=wrap;rounded=0;" vertex="1" parent="WIyWlLk6GJQsqaUBKTNV-1">
          <mxGeometry x="21" y="40" width="250" height="30" as="geometry" />
        </mxCell>
        <mxCell id="ME1PsBKnuaRqL1L0iH7A-47" value="&lt;font style=&quot;font-size: 24px;&quot;&gt;เป้าหมาย: 120,000 บาท&lt;/font&gt;" style="text;html=1;align=center;verticalAlign=middle;whiteSpace=wrap;rounded=0;" vertex="1" parent="WIyWlLk6GJQsqaUBKTNV-1">
          <mxGeometry x="11" y="370" width="260" height="30" as="geometry" />
        </mxCell>
        <mxCell id="ME1PsBKnuaRqL1L0iH7A-48" value="&lt;font style=&quot;font-size: 24px;&quot;&gt;ระยะเวลา: 1 ปี&lt;/font&gt;" style="text;html=1;align=center;verticalAlign=middle;whiteSpace=wrap;rounded=0;" vertex="1" parent="WIyWlLk6GJQsqaUBKTNV-1">
          <mxGeometry y="425" width="190" height="30" as="geometry" />
        </mxCell>
        <mxCell id="ME1PsBKnuaRqL1L0iH7A-49" value="&lt;font style=&quot;font-size: 24px;&quot;&gt;ความถี่: วัน&lt;/font&gt;" style="text;html=1;align=center;verticalAlign=middle;whiteSpace=wrap;rounded=0;" vertex="1" parent="WIyWlLk6GJQsqaUBKTNV-1">
          <mxGeometry x="20" y="475" width="170" height="30" as="geometry" />
        </mxCell>
        <mxCell id="ME1PsBKnuaRqL1L0iH7A-50" value="&lt;font style=&quot;font-size: 24px;&quot;&gt;ต้องออม 328.77&amp;nbsp; บาทต่อวัน&lt;/font&gt;" style="text;html=1;align=center;verticalAlign=middle;whiteSpace=wrap;rounded=0;" vertex="1" parent="WIyWlLk6GJQsqaUBKTNV-1">
          <mxGeometry x="20" y="540" width="300" height="30" as="geometry" />
        </mxCell>
      </root>
    </mxGraphModel>
  </diagram>
</mxfile>
